<?xml version="1.0" encoding="UTF-8"?>
<svg width="880px" height="653px" viewBox="0 0 880 653" version="1.1" xmlns="http://www.w3.org/2000/svg" xmlns:xlink="http://www.w3.org/1999/xlink">
    <!-- Generator: Sketch 53 (72520) - https://sketchapp.com -->
    <title>bgright</title>
    <desc>Created with Sketch.</desc>
    <defs>
        <linearGradient x1="151.670828%" y1="21.3266096%" x2="6.85926829%" y2="94.3739648%" id="linearGradient-1">
            <stop stop-color="#FEE6FF" offset="0%"></stop>
            <stop stop-color="#C9E2FF" offset="100%"></stop>
        </linearGradient>
    </defs>
    <g id="Page-1" stroke="none" stroke-width="1" fill="none" fill-rule="evenodd">
        <g id="联系我们" transform="translate(-489.000000, -97.000000)">
            <g id="bgright" transform="translate(489.000000, 81.558983)">
                <path d="M873.093738,17.0215331 C680.959352,7.93859531 565.553158,38.00414 526.875155,107.218167 C468.858152,211.039208 611.399928,258.087909 532.876914,382.951144 C454.353901,507.814379 683.497155,332.028303 385.245027,458.784396 C186.410275,543.288458 94.912999,618.507332 110.753199,684.441017 L879,670.788653 L873.093738,17.0215331 Z" id="Path-5" fill-opacity="0.79" fill="url(#linearGradient-1)"></path>
                <path d="M363,670.441017 C424.0098,601.494383 513.342997,573.882248 630.99959,587.604614 C807.484479,608.188162 615.855192,306.965504 879,237.441017 C877.278866,303.710001 877.278866,448.043335 879,670.441017 L363,670.441017 Z" id="Path-15" fill-opacity="0.21" fill="#4D99C7"></path>
                <path d="M0,670.441017 C41.3323156,589.493897 86.9978578,549.856568 136.996627,551.529029 C211.99478,554.037721 405.990003,591.668096 454.488809,567.082918 C502.987615,542.497739 792.023786,223.914717 879,323.750234 C879,415.394162 878.13938,530.957757 876.418141,670.441017 L0,670.441017 Z" id="Path-16" fill-opacity="0.18" fill="#C297FF"></path>
                <path d="M666.742397,125.529611 L840.697325,125.529611 C840.659455,127.213365 840.574029,128.885344 840.44234,130.544252 L666.997382,130.544252 C666.865693,128.885344 666.780267,127.213365 666.742397,125.529611 Z M779.874306,40.2807087 L727.565415,40.2807087 C735.820492,37.6743307 744.606539,36.2689957 753.719861,36.2689957 C762.833183,36.2689957 771.61923,37.6743307 779.874306,40.2807087 Z M667.408635,134.555965 L840.031087,134.555965 C839.81886,136.242991 839.558606,137.915011 839.251742,139.570606 L668.18798,139.570606 C667.881116,137.915011 667.620862,136.242991 667.408635,134.555965 Z M717.228149,44.2924218 L790.211573,44.2924218 C793.415204,45.7790596 796.513456,47.4554002 799.491977,49.3070631 L707.947745,49.3070631 C710.926266,47.4554002 714.024518,45.7790596 717.228171,44.2924115 Z M669.029738,143.582319 L838.409984,143.582319 C838.013322,145.273372 837.567609,146.94545 837.074432,148.596961 L670.36529,148.596961 C669.872113,146.94545 669.4264,145.273372 669.029738,143.582319 Z M702.048047,53.3187761 L805.391675,53.3187761 C807.520386,54.8973443 809.57476,56.5709755 811.548563,58.3334174 L695.891159,58.3334174 C697.864962,56.5709755 699.919336,54.8973443 702.048047,53.3187761 Z M671.670323,152.608674 L835.769399,152.608674 C835.171613,154.304908 834.523019,155.977069 833.825447,157.623317 L673.614262,157.623315 C672.916703,155.977069 672.268109,154.304908 671.670327,152.608674 Z M691.687584,62.3451304 L815.752137,62.3451304 C817.332403,63.9566748 818.850715,65.6295156 820.303204,67.3597717 L687.136518,67.3597717 C688.589007,65.6295156 690.107319,63.9566748 691.687584,62.3451304 Z M675.435442,161.635028 L832.004254,161.635028 C831.178347,163.338306 830.298808,165.010588 829.367835,166.649669 L678.071887,166.649669 C677.140914,165.010588 676.261375,163.338306 675.435471,161.635034 Z M683.963711,71.3714847 L823.476011,71.3714847 C824.688474,73.0000805 825.845568,74.6725628 826.944497,76.386126 L680.495225,76.386126 C681.594154,74.6725628 682.751248,73.0000805 683.963711,71.3714847 Z M680.495225,170.661382 L826.944497,170.661382 C825.845568,172.374945 824.688474,174.047428 823.476011,175.676024 L683.963711,175.676024 C682.751248,174.047428 681.594154,172.374945 680.495225,170.661382 Z M678.071887,80.397839 L829.367835,80.397839 C830.298808,82.0369203 831.178347,83.7092019 832.004251,85.4124744 L675.435442,85.4124803 C676.261375,83.7092019 677.140914,82.0369203 678.071887,80.397839 Z M687.136518,179.687737 L820.303204,179.687737 C818.850715,181.417993 817.332403,183.090833 815.752137,184.702378 L691.687584,184.702378 C690.107319,183.090833 688.589007,181.417993 687.136518,179.687737 Z M673.614262,89.4241934 L833.82546,89.4241934 C834.523019,91.0704397 835.171613,92.7426005 835.769395,94.4388342 L671.670323,94.4388346 C672.268109,92.7426005 672.916703,91.0704397 673.614275,89.4241914 Z M695.891159,188.714091 L811.548563,188.714091 C809.57476,190.476533 807.520386,192.150164 805.391675,193.728732 L702.048047,193.728732 C699.919336,192.150164 697.864962,190.476533 695.891159,188.714091 Z M670.36529,98.4505477 L837.074432,98.4505477 C837.567609,100.102059 838.013322,101.774137 838.409984,103.465189 L669.029738,103.465189 C669.4264,101.774137 669.872113,100.102059 670.36529,98.4505477 Z M707.947745,197.740445 L799.491977,197.740445 C796.513456,199.592108 793.415204,201.268449 790.211551,202.755097 L717.228149,202.755086 C714.024518,201.268449 710.926266,199.592108 707.947745,197.740445 Z M668.18798,107.476902 L839.251742,107.476902 C839.558606,109.132497 839.81886,110.804518 840.031087,112.491543 L667.408635,112.491543 C667.620862,110.804518 667.881116,109.132497 668.18798,107.476902 Z M727.565415,206.7668 L779.874306,206.7668 C771.61923,209.373178 762.833183,210.778513 753.719861,210.778513 C744.606539,210.778513 735.820492,209.373178 727.565415,206.7668 Z M666.997382,116.503256 L840.44234,116.503256 C840.574029,118.162164 840.659455,119.834144 840.697325,121.517898 L666.742397,121.517898 C666.780267,119.834144 666.865693,118.162164 666.997382,116.503256 Z" id="Combined-Shape-Copy-2" fill-opacity="0.38" fill="#0C996B" opacity="0.520438058" transform="translate(753.719861, 123.523754) rotate(-41.000000) translate(-753.719861, -123.523754) "></path>
                <path d="M163,548.952511 L337,548.952511 C336.96212,550.640997 336.876672,552.317676 336.744949,553.981247 L163.255051,553.981247 C163.123328,552.317676 163.03788,550.640997 163,548.952511 Z M276.161222,463.464005 L223.838778,463.464005 C232.095993,460.850302 240.884317,459.441017 250,459.441017 C259.115683,459.441017 267.904007,460.850302 276.161222,463.464005 Z M163.66641,558.004235 L336.33359,558.004235 C336.121308,559.696002 335.860986,561.372723 335.554042,563.032971 L164.445958,563.032971 C164.139014,561.372723 163.878692,559.696002 163.66641,558.004235 Z M213.498833,467.486994 L286.501167,467.486994 C289.705628,468.97781 292.804683,470.658862 295.783975,472.515729 L204.216025,472.515729 C207.195317,470.658862 210.294372,468.97781 213.498855,467.486983 Z M165.287934,567.055959 L334.712066,567.055959 C334.315302,568.751764 333.869473,570.428542 333.376169,572.084695 L166.623831,572.084695 C166.130527,570.428542 165.684698,568.751764 165.287934,567.055959 Z M198.314797,476.538718 L301.685203,476.538718 C303.814464,478.121723 305.869371,479.800058 307.843686,481.567453 L192.156314,481.567453 C194.130629,479.800058 196.185536,478.121723 198.314797,476.538718 Z M167.929203,576.107683 L332.070797,576.107683 C331.472856,577.808685 330.824094,579.485546 330.126342,581.136421 L169.873646,581.136419 C169.175906,579.485546 168.527144,577.808685 167.929207,576.107684 Z M187.951651,485.590442 L312.048349,485.590442 C313.629024,487.206516 315.147729,488.884058 316.600595,490.619178 L183.399405,490.619178 C184.852271,488.884058 186.370976,487.206516 187.951651,485.590442 Z M171.695298,585.159408 L328.304676,585.159408 C327.478556,586.867473 326.598788,588.544455 325.667574,590.188143 L174.332426,590.188143 C173.401212,588.544455 172.521444,586.867473 171.695327,585.159413 Z M180.225776,494.642166 L319.774224,494.642166 C320.987001,496.275339 322.144395,497.952522 323.243609,499.670902 L176.756391,499.670902 C177.855605,497.952522 179.012999,496.275339 180.225776,494.642166 Z M176.756391,594.211132 L323.243609,594.211132 C322.144395,595.929511 320.987001,597.606694 319.774224,599.239867 L180.225776,599.239867 C179.012999,597.606694 177.855605,595.929511 176.756391,594.211132 Z M174.332426,503.69389 L325.667574,503.69389 C326.598788,505.337578 327.478556,507.01456 328.304673,508.72262 L171.695298,508.722626 C172.521444,507.01456 173.401212,505.337578 174.332426,503.69389 Z M183.399405,603.262856 L316.600595,603.262856 C315.147729,604.997975 313.629024,606.675518 312.048349,608.291591 L187.951651,608.291591 C186.370976,606.675518 184.852271,604.997975 183.399405,603.262856 Z M169.873646,512.745614 L330.126354,512.745614 C330.824094,514.396488 331.472856,516.073348 332.070793,517.77435 L167.929203,517.77435 C168.527144,516.073348 169.175906,514.396488 169.873658,512.745612 Z M192.156314,612.31458 L307.843686,612.31458 C305.869371,614.081975 303.814464,615.760311 301.685203,617.343316 L198.314797,617.343316 C196.185536,615.760311 194.130629,614.081975 192.156314,612.31458 Z M166.623831,521.797339 L333.376169,521.797339 C333.869473,523.453491 334.315302,525.130269 334.712066,526.826074 L165.287934,526.826074 C165.684698,525.130269 166.130527,523.453491 166.623831,521.797339 Z M204.216025,621.366304 L295.783975,621.366304 C292.804683,623.223171 289.705628,624.904223 286.501145,626.39505 L213.498833,626.39504 C210.294372,624.904223 207.195317,623.223171 204.216025,621.366304 Z M164.445958,530.849063 L335.554042,530.849063 C335.860986,532.509311 336.121308,534.186031 336.33359,535.877798 L163.66641,535.877798 C163.878692,534.186031 164.139014,532.509311 164.445958,530.849063 Z M223.838778,630.418028 L276.161222,630.418028 C267.904007,633.031732 259.115683,634.441017 250,634.441017 C240.884317,634.441017 232.095993,633.031732 223.838778,630.418028 Z M163.255051,539.900787 L336.744949,539.900787 C336.876672,541.564357 336.96212,543.241036 337,544.929522 L163,544.929522 C163.03788,543.241036 163.123328,541.564357 163.255051,539.900787 Z" id="Combined-Shape" fill-opacity="0.38" fill="#0C3199"></path>
            </g>
        </g>
    </g>
</svg>