<?xml version="1.0" encoding="UTF-8"?>
<svg width="548px" height="617px" viewBox="0 0 548 617" version="1.1" xmlns="http://www.w3.org/2000/svg" xmlns:xlink="http://www.w3.org/1999/xlink">
    <!-- Generator: Sketch 53 (72520) - https://sketchapp.com -->
    <title>bgleft</title>
    <desc>Created with Sketch.</desc>
    <g id="Page-1" stroke="none" stroke-width="1" fill="none" fill-rule="evenodd" opacity="0.5">
        <g id="联系我们" transform="translate(0.000000, -133.000000)" stroke="#D4EEFB">
            <g id="bgleft" transform="translate(268.500000, 464.000000) scale(-1, -1) translate(-268.500000, -464.000000) translate(-18.000000, 133.000000)">
                <polygon id="Polygon-Copy-43" fill="#D2E5F7" points="502 270 553.961524 300 553.961524 360 502 390 450.038476 360 450.038476 300"></polygon>
                <polygon id="Polygon-Copy-44" fill="#BFE5F0" points="450 360 501.961524 390 501.961524 450 450 480 398.038476 450 398.038476 390"></polygon>
                <path d="M555,181.732051 L555,298.267949 L552,300 L500.038476,270 L500.038476,210 L552,180 L555,181.732051 Z" id="Combined-Shape" fill="#DCE9F5" opacity="0.869070871"></path>
                <path d="M572.392305,6 L552,6 L552,114.226497 L510.038476,90 L510.038476,30 L562,0 L572.392305,6 Z" id="Combined-Shape" fill="#DCE9F5" opacity="0.468191964"></path>
                <polygon id="Polygon-Copy-26" fill="#DCE9F5" opacity="0.869070871" points="450 180 501.961524 210 501.961524 270 450 300 398.038476 270 398.038476 210"></polygon>
                <polygon id="Polygon-Copy-35" fill="#EAF4FD" opacity="0.701218378" points="376 60 427.961524 90 427.961524 150 376 180 324.038476 150 324.038476 90"></polygon>
                <polygon id="Polygon-Copy-46" fill="#D2E5F7" points="398 270 449.961524 300 449.961524 360 398 390 346.038476 360 346.038476 300"></polygon>
                <polygon id="Polygon-Copy-50" fill="#D2E5F7" opacity="0.663248698" points="145 510 196.961524 540 196.961524 600 145 630 93.0384758 600 93.0384758 540"></polygon>
                <polygon id="Polygon-Copy-54" fill-opacity="0.44" fill="#EDD2F7" opacity="0.663248698" points="246 0 297.961524 30 297.961524 90 246 120 194.038476 90 194.038476 30"></polygon>
                <polygon id="Polygon-Copy-52" fill="#B2D6F7" points="60 378 111.961524 408 111.961524 468 60 498 8.03847577 468 8.03847577 408"></polygon>
                <polygon id="Polygon-Copy-53" fill="#D2E5F7" points="348 180 399.961524 210 399.961524 270 348 300 296.038476 270 296.038476 210"></polygon>
                <polygon id="Polygon-Copy-13" fill="#BFD8F0" points="502 450 553.961524 480 553.961524 540 502 570 450.038476 540 450.038476 480"></polygon>
                <polygon id="Polygon-Copy-47" fill="#BFD8F0" opacity="0.686662946" points="288 366 339.961524 396 339.961524 456 288 486 236.038476 456 236.038476 396"></polygon>
                <polygon id="Polygon-Copy-48" fill="#BFD8F0" points="398 450 449.961524 480 449.961524 540 398 570 346.038476 540 346.038476 480"></polygon>
                <path d="M554,542.154701 L554,659.845299 L552,661 L500.038476,631 L500.038476,571 L552,541 L554,542.154701 Z" id="Combined-Shape" fill="#ACCEEF"></path>
            </g>
        </g>
    </g>
</svg>