<?xml version="1.0" encoding="UTF-8"?>
<svg width="360px" height="690px" viewBox="0 0 360 690" version="1.1" xmlns="http://www.w3.org/2000/svg" xmlns:xlink="http://www.w3.org/1999/xlink">
    <!-- Generator: Sketch 53.2 (72643) - https://sketchapp.com -->
    <title>bg1</title>
    <desc>Created with Sketch.</desc>
    <g id="Page-1" stroke="none" stroke-width="1" fill="none" fill-rule="evenodd" opacity="0.5">
        <g id="产品展示" transform="translate(0.000000, -134.000000)" stroke="#D4EEFB">
            <g id="bg1" transform="translate(171.000000, 479.000000) scale(-1, -1) translate(-171.000000, -479.000000) translate(-18.000000, 134.000000)">
                <polygon id="Polygon-Copy-43" fill="#D2E5F7" points="307 299 358.961524 329 358.961524 389 307 419 255.038476 389 255.038476 329"></polygon>
                <polygon id="Polygon-Copy-44" fill="#BFE5F0" points="255 389 306.961524 419 306.961524 479 255 509 203.038476 479 203.038476 419"></polygon>
                <path d="M360,210.732051 L360,327.267949 L357,329 L305.038476,299 L305.038476,239 L357,209 L360,210.732051 Z" id="Combined-Shape" fill="#DCE9F5" opacity="0.869070871"></path>
                <path d="M377.392305,35 L357,35 L357,143.226497 L315.038476,119 L315.038476,59 L367,29 L377.392305,35 Z" id="Combined-Shape" fill="#DCE9F5" opacity="0.468191964"></path>
                <polygon id="Polygon-Copy-26" fill="#DCE9F5" opacity="0.869070871" points="255 209 306.961524 239 306.961524 299 255 329 203.038476 299 203.038476 239"></polygon>
                <polygon id="Polygon-Copy-35" fill="#EAF4FD" opacity="0.701218378" points="181 89 232.961524 119 232.961524 179 181 209 129.038476 179 129.038476 119"></polygon>
                <polygon id="Polygon-Copy-46" fill="#D2E5F7" points="203 299 254.961524 329 254.961524 389 203 419 151.038476 389 151.038476 329"></polygon>
                <polygon id="Polygon-Copy-13" fill="#BFD8F0" points="307 479 358.961524 509 358.961524 569 307 599 255.038476 569 255.038476 509"></polygon>
                <polygon id="Polygon-Copy-47" fill="#BFD8F0" opacity="0.686662946" points="93 395 144.961524 425 144.961524 485 93 515 41.0384758 485 41.0384758 425"></polygon>
                <polygon id="Polygon-Copy-48" fill="#BFD8F0" points="203 479 254.961524 509 254.961524 569 203 599 151.038476 569 151.038476 509"></polygon>
                <path d="M359,571.154701 L359,688.845299 L357,690 L305.038476,660 L305.038476,600 L357,570 L359,571.154701 Z" id="Combined-Shape" fill="#ACCEEF"></path>
            </g>
        </g>
    </g>
</svg>