<?xml version="1.0" encoding="UTF-8"?>
<svg width="937px" height="672px" viewBox="0 0 937 672" version="1.1" xmlns="http://www.w3.org/2000/svg" xmlns:xlink="http://www.w3.org/1999/xlink">
    <!-- Generator: Sketch 53.2 (72643) - https://sketchapp.com -->
    <title>bg2</title>
    <desc>Created with Sketch.</desc>
    <g id="Page-1" stroke="none" stroke-width="1" fill="none" fill-rule="evenodd" opacity="0.8">
        <g id="产品展示" transform="translate(-430.000000, -152.000000)" stroke="#D4EEFB">
            <g id="bg2" transform="translate(430.000000, 152.000000)">
                <polygon id="Polygon" fill="#D2E5F7" points="474 221 525.961524 251 525.961524 311 474 341 422.038476 311 422.038476 251"></polygon>
                <polygon id="Polygon-Copy-24" fill="#EAF4FD" points="526 131 577.961524 161 577.961524 221 526 251 474.038476 221 474.038476 161"></polygon>
                <polygon id="Polygon-Copy-6" fill="#D2E5F7" points="526 311 577.961524 341 577.961524 401 526 431 474.038476 401 474.038476 341"></polygon>
                <polygon id="Polygon-Copy-43" fill="#D2E5F7" points="320 311 371.961524 341 371.961524 401 320 431 268.038476 401 268.038476 341"></polygon>
                <polygon id="Polygon-Copy-12" fill="#BFD8F0" points="474 401 525.961524 431 525.961524 491 474 521 422.038476 491 422.038476 431"></polygon>
                <polygon id="Polygon-Copy-44" fill="#BFE5F0" points="268 401 319.961524 431 319.961524 491 268 521 216.038476 491 216.038476 431"></polygon>
                <polygon id="Polygon-Copy-18" fill="#BFE5F0" points="526 491 577.961524 521 577.961524 581 526 611 474.038476 581 474.038476 521"></polygon>
                <polygon id="Polygon-Copy-5" fill="#DCE9F5" opacity="0.869070871" points="370 221 421.961524 251 421.961524 311 370 341 318.038476 311 318.038476 251"></polygon>
                <polygon id="Polygon-Copy-25" fill="#DCE9F5" opacity="0.468191964" points="406 28 457.961524 58 457.961524 118 406 148 354.038476 118 354.038476 58"></polygon>
                <polygon id="Polygon-Copy-26" fill="#DCE9F5" opacity="0.869070871" points="268 221 319.961524 251 319.961524 311 268 341 216.038476 311 216.038476 251"></polygon>
                <polygon id="Polygon-Copy-35" fill="#EAF4FD" opacity="0.701218378" points="194 101 245.961524 131 245.961524 191 194 221 142.038476 191 142.038476 131"></polygon>
                <polygon id="Polygon-Copy-7" fill="#D2E5F7" points="422 311 473.961524 341 473.961524 401 422 431 370.038476 401 370.038476 341"></polygon>
                <polygon id="Polygon-Copy-46" fill="#D2E5F7" points="216 311 267.961524 341 267.961524 401 216 431 164.038476 401 164.038476 341"></polygon>
                <polygon id="Polygon-Copy-13" fill="#BFD8F0" points="320 491 371.961524 521 371.961524 581 320 611 268.038476 581 268.038476 521"></polygon>
                <polygon id="Polygon-Copy-47" fill="#BFD8F0" opacity="0.686662946" points="109 401 160.961524 431 160.961524 491 109 521 57.0384758 491 57.0384758 431"></polygon>
                <polygon id="Polygon-Copy-19" fill="#BFE5F0" points="422 491 473.961524 521 473.961524 581 422 611 370.038476 581 370.038476 521"></polygon>
                <polygon id="Polygon-Copy-48" fill="#BFD8F0" points="216 491 267.961524 521 267.961524 581 216 611 164.038476 581 164.038476 521"></polygon>
                <polygon id="Polygon-Copy-30" fill-opacity="0.66" fill="#ACBFEF" points="578 581 629.961524 611 629.961524 671 578 701 526.038476 671 526.038476 611"></polygon>
                <polygon id="Polygon-Copy-36" fill-opacity="0.66" fill="#ACCEEF" points="370 581 421.961524 611 421.961524 671 370 701 318.038476 671 318.038476 611"></polygon>
                <polygon id="Polygon-Copy-49" fill-opacity="0.66" fill="#ACCEEF" points="164 581 215.961524 611 215.961524 671 164 701 112.038476 671 112.038476 611"></polygon>
                <polygon id="Polygon-Copy-51" fill-opacity="0.66" fill="#ACCEEF" opacity="0.827404204" points="60 581 111.961524 611 111.961524 671 60 701 8.03847577 671 8.03847577 611"></polygon>
                <polygon id="Polygon-Copy-31" fill-opacity="0.66" fill="#ACCEEF" points="474 581 525.961524 611 525.961524 671 474 701 422.038476 671 422.038476 611"></polygon>
                <polygon id="Polygon-Copy-23" fill-opacity="0.66" fill="#ACBFEF" points="890 581 941.961524 611 941.961524 671 890 701 838.038476 671 838.038476 611"></polygon>
                <polygon id="Polygon-Copy-32" fill="#ACCEEF" points="994 581 1045.96152 611 1045.96152 671 994 701 942.038476 671 942.038476 611"></polygon>
                <polygon id="Polygon-Copy-33" fill-opacity="0.66" fill="#ACCEEF" points="682 581 733.961524 611 733.961524 671 682 701 630.038476 671 630.038476 611"></polygon>
                <polygon id="Polygon-Copy-4" fill="#D2E5F7" points="890 221 941.961524 251 941.961524 311 890 341 838.038476 311 838.038476 251"></polygon>
                <polygon id="Polygon-Copy-39" fill="#D8D8D8" points="994 42 1045.96152 72 1045.96152 132 994 162 942.038476 132 942.038476 72"></polygon>
                <polygon id="Polygon-Copy-8" fill="#D2E5F7" points="942 311 993.961524 341 993.961524 401 942 431 890.038476 401 890.038476 341"></polygon>
                <polygon id="Polygon-Copy-14" fill="#BFD8F0" points="890 401 941.961524 431 941.961524 491 890 521 838.038476 491 838.038476 431"></polygon>
                <polygon id="Polygon-Copy-20" fill="#BFD8F0" points="942 491 993.961524 521 993.961524 581 942 611 890.038476 581 890.038476 521"></polygon>
                <polygon id="Polygon-Copy" fill="#D2E5F7" points="578 221 629.961524 251 629.961524 311 578 341 526.038476 311 526.038476 251"></polygon>
                <polygon id="Polygon-Copy-27" fill="#EAF9FD" points="630 131 681.961524 161 681.961524 221 630 251 578.038476 221 578.038476 161"></polygon>
                <polygon id="Polygon-Copy-29" fill="#EAF4FD" opacity="0.695010231" points="682 1 733.961524 31 733.961524 91 682 121 630.038476 91 630.038476 31"></polygon>
                <polygon id="Polygon-Copy-9" fill="#D2DBF7" points="630 311 681.961524 341 681.961524 401 630 431 578.038476 401 578.038476 341"></polygon>
                <polygon id="Polygon-Copy-15" fill="#BFD8F0" points="578 401 629.961524 431 629.961524 491 578 521 526.038476 491 526.038476 431"></polygon>
                <polygon id="Polygon-Copy-21" fill="#BFD8F0" points="630 491 681.961524 521 681.961524 581 630 611 578.038476 581 578.038476 521"></polygon>
                <polygon id="Polygon-Copy-2" fill="#D2DBF7" points="682 221 733.961524 251 733.961524 311 682 341 630.038476 311 630.038476 251"></polygon>
                <polygon id="Polygon-Copy-28" fill="#EAF4FD" points="734 131 785.961524 161 785.961524 221 734 251 682.038476 221 682.038476 161"></polygon>
                <polygon id="Polygon-Copy-34" fill="#EAF4FD" points="838 131 889.961524 161 889.961524 221 838 251 786.038476 221 786.038476 161"></polygon>
                <polygon id="Polygon-Copy-41" fill="#EAF4FD" opacity="0.695010231" points="802 41 853.961524 71 853.961524 131 802 161 750.038476 131 750.038476 71"></polygon>
                <polygon id="Polygon-Copy-10" fill="#D2DBF7" points="734 311 785.961524 341 785.961524 401 734 431 682.038476 401 682.038476 341"></polygon>
                <polygon id="Polygon-Copy-16" fill="#BFD8F0" points="682 401 733.961524 431 733.961524 491 682 521 630.038476 491 630.038476 431"></polygon>
                <polygon id="Polygon-Copy-22" fill="#BFD8F0" points="734 491 785.961524 521 785.961524 581 734 611 682.038476 581 682.038476 521"></polygon>
                <polygon id="Polygon-Copy-3" fill="#D2DBF7" points="786 221 837.961524 251 837.961524 311 786 341 734.038476 311 734.038476 251"></polygon>
                <polygon id="Polygon-Copy-11" fill="#D2E5F7" points="838 311 889.961524 341 889.961524 401 838 431 786.038476 401 786.038476 341"></polygon>
                <polygon id="Polygon-Copy-17" fill="#BFD8F0" points="786 401 837.961524 431 837.961524 491 786 521 734.038476 491 734.038476 431"></polygon>
            </g>
        </g>
    </g>
</svg>