<?xml version="1.0" encoding="UTF-8"?>
<svg width="35px" height="35px" viewBox="0 0 35 35" version="1.1" xmlns="http://www.w3.org/2000/svg" xmlns:xlink="http://www.w3.org/1999/xlink">
    <!-- Generator: Sketch 53.2 (72643) - https://sketchapp.com -->
    <title>guanbi</title>
    <desc>Created with Sketch.</desc>
    <g id="Page-1" stroke="none" stroke-width="1" fill="none" fill-rule="evenodd">
        <g id="产品详情" transform="translate(-1022.000000, -204.000000)" fill="#FFFFFF" fill-rule="nonzero">
            <g transform="translate(323.000000, 191.000000)" id="guanbi">
                <g transform="translate(699.970563, 14.000000)">
                    <path d="M17,29 C10.372583,29 5,23.627417 5,17 C5,10.372583 10.372583,5 17,5 C23.627417,5 29,10.372583 29,17 C29,23.627417 23.627417,29 17,29 Z M17,27 C22.5228475,27 27,22.5228475 27,17 C27,11.4771525 22.5228475,7 17,7 C11.4771525,7 7,11.4771525 7,17 C7,22.5228475 11.4771525,27 17,27 Z M18,16 L21,16 L21,18 L18,18 L18,21 L16,21 L16,18 L13,18 L13,16 L16,16 L16,13 L18,13 L18,16 Z" id="Combined-Shape" transform="translate(17.000000, 17.000000) rotate(-315.000000) translate(-17.000000, -17.000000) "></path>
                </g>
            </g>
        </g>
    </g>
</svg>