<?xml version="1.0" encoding="UTF-8"?>
<svg width="564px" height="84px" viewBox="0 0 564 84" version="1.1" xmlns="http://www.w3.org/2000/svg" xmlns:xlink="http://www.w3.org/1999/xlink">
    <!-- Generator: Sketch 53.2 (72643) - https://sketchapp.com -->
    <title>dizhi</title>
    <desc>Created with Sketch.</desc>
    <defs>
        <linearGradient x1="1.19756133%" y1="8.87968744%" x2="113.436236%" y2="100%" id="linearGradient-1">
            <stop stop-color="#00CEF6" stop-opacity="0.51333042" offset="0%"></stop>
            <stop stop-color="#00A0E9" offset="100%"></stop>
        </linearGradient>
        <polygon id="path-2" points="48 0.489622217 83.5070416 21.2396222 83.5070416 62.7396222 48 83.4896222 12.4929584 62.7396222 12.4929584 21.2396222"></polygon>
        <filter x="-3.1%" y="-8.7%" width="106.1%" height="119.8%" filterUnits="objectBoundingBox" id="filter-3">
            <feMorphology radius="1.5" operator="dilate" in="SourceAlpha" result="shadowSpreadOuter1"></feMorphology>
            <feOffset dx="0" dy="1" in="shadowSpreadOuter1" result="shadowOffsetOuter1"></feOffset>
            <feGaussianBlur stdDeviation="2" in="shadowOffsetOuter1" result="shadowBlurOuter1"></feGaussianBlur>
            <feComposite in="shadowBlurOuter1" in2="SourceAlpha" operator="out" result="shadowBlurOuter1"></feComposite>
            <feColorMatrix values="0 0 0 0 0   0 0 0 0 0   0 0 0 0 0  0 0 0 0.264586976 0" type="matrix" in="shadowBlurOuter1"></feColorMatrix>
        </filter>
        <linearGradient x1="107.401208%" y1="-20.0293395%" x2="0%" y2="112.564368%" id="linearGradient-4">
            <stop stop-color="#00CEF6" offset="0%"></stop>
            <stop stop-color="#00A0E9" offset="100%"></stop>
        </linearGradient>
        <linearGradient x1="48.8186256%" y1="8.87968744%" x2="51.5356189%" y2="100%" id="linearGradient-5">
            <stop stop-color="#00CEF6" stop-opacity="0.51333042" offset="0%"></stop>
            <stop stop-color="#00A0E9" offset="100%"></stop>
        </linearGradient>
        <polygon id="path-6" points="329.496664 -189 365.003705 -168.25 365.003705 252.243328 329.496664 272.993328 293.989622 252.243328 293.989622 -168.25"></polygon>
        <filter x="-11.3%" y="-1.6%" width="122.5%" height="103.6%" filterUnits="objectBoundingBox" id="filter-7">
            <feMorphology radius="1.5" operator="dilate" in="SourceAlpha" result="shadowSpreadOuter1"></feMorphology>
            <feOffset dx="0" dy="1" in="shadowSpreadOuter1" result="shadowOffsetOuter1"></feOffset>
            <feGaussianBlur stdDeviation="2" in="shadowOffsetOuter1" result="shadowBlurOuter1"></feGaussianBlur>
            <feComposite in="shadowBlurOuter1" in2="SourceAlpha" operator="out" result="shadowBlurOuter1"></feComposite>
            <feColorMatrix values="0 0 0 0 0   0 0 0 0 0   0 0 0 0 0  0 0 0 0.264586976 0" type="matrix" in="shadowBlurOuter1"></feColorMatrix>
        </filter>
    </defs>
    <g id="Page-1" stroke="none" stroke-width="1" fill="none" fill-rule="evenodd">
        <g id="联系我们" transform="translate(-116.000000, -346.000000)">
            <g id="dizhi" transform="translate(115.500000, 346.510378)">
                <g id="Polygon-Copy-29" transform="translate(48.000000, 41.989622) rotate(-270.000000) translate(-48.000000, -41.989622) ">
                    <use fill="black" fill-opacity="1" filter="url(#filter-3)" xlink:href="#path-2"></use>
                    <use stroke="url(#linearGradient-1)" stroke-width="3" fill="#FFFFFF" fill-rule="evenodd" xlink:href="#path-2"></use>
                </g>
                <path d="M48,27.8086222 C44.3708802,27.8051693 40.8897799,29.2470516 38.326,31.8156222 C35.7574294,34.3794021 34.3155471,37.8605024 34.319,41.4896222 C34.3134901,45.1188562 35.7557068,48.600404 38.326,51.1626222 C40.887417,53.7348444 44.3699678,55.1776874 48,55.1706222 C51.6296198,55.1770875 55.1116383,53.7343158 57.673,51.1626222 C58.9239438,49.9170795 59.9204755,48.4399436 60.607,46.8136222 C61.319,45.1286222 61.681,43.3376222 61.681,41.4896222 C61.6880652,37.85959 60.2452222,34.3770392 57.673,31.8156222 C55.1107818,29.245329 51.6292339,27.8031123 48,27.8086222 Z M48,26.4896222 C56.284,26.4896222 63,33.2046222 63,41.4896222 C63,49.7736222 56.284,56.4896222 48,56.4896222 C39.715,56.4896222 33,49.7736222 33,41.4896222 C33,33.2046222 39.715,26.4896222 48,26.4896222 Z M48.6937562,50.1596743 C48.3307886,50.4455613 47.819219,50.4455614 47.4562485,50.159678 C42.7187495,46.4282464 40.35,43.2036263 40.35,40.4858179 C40.35,36.2353264 43.8086003,32.7896222 48.075,32.7896222 C52.3413997,32.7896222 55.8,36.2353264 55.8,40.4858179 C55.8,43.2036254 53.4312521,46.4282442 48.6937562,50.1596743 Z M48.15,44.9396222 C50.59386,44.9396222 52.575,42.9584822 52.575,40.5146222 C52.575,38.0707622 50.59386,36.0896222 48.15,36.0896222 C45.70614,36.0896222 43.725,38.0707622 43.725,40.5146222 C43.725,42.9584822 45.70614,44.9396222 48.15,44.9396222 Z" id="Combined-Shape" fill="url(#linearGradient-4)" fill-rule="nonzero"></path>
                <g id="Polygon-Copy-37" transform="translate(329.496664, 41.996664) rotate(-270.000000) translate(-329.496664, -41.996664) ">
                    <use fill="black" fill-opacity="1" filter="url(#filter-7)" xlink:href="#path-6"></use>
                    <use stroke="url(#linearGradient-5)" stroke-width="3" fill="#FFFFFF" fill-rule="evenodd" xlink:href="#path-6"></use>
                </g>
                <path d="M98.9896222,44 C107.243354,62 125.322956,69.6666667 153.228428,67 C181.133901,64.3333333 215.720966,68.3380277 256.989622,79.0140831 L123.45604,79.0140831 L98.9896222,44 Z" id="Path-4" fill-opacity="0.5" fill="#8CCCF7"></path>
                <path d="M197.989622,79.5158435 C231.342935,67.5017604 254.884601,63.497066 268.614622,67.5017604 C282.344643,71.5064548 296.469643,75.5111491 310.989622,79.5158435 L197.989622,79.5158435 Z" id="Path-6" fill-opacity="0.5" fill="#7D5FB2"></path>
                <path d="M461.989622,79.6575073 C470.684928,67.6434242 481.356439,63.6387299 494.004157,67.6434242 C512.975732,73.6504658 560.989622,49.1434242 560.989622,43.6434242 C560.989622,39.9767576 552.788368,51.9814519 536.38586,79.6575073 L461.989622,79.6575073 Z" id="Path-7" fill-opacity="0.5" fill="#75D3DC"></path>
                <path d="M286.989622,78.0140831 C305.77951,70.0046944 321.046294,66 332.789974,66 C350.405494,66 411.47263,72.0070416 404.426422,78.0140831 C402.606629,79.5654947 363.46103,79.5654947 286.989622,78.0140831 Z" id="Path-8" fill-opacity="0.5" fill="#B6C1EE"></path>
                <path d="M380.989622,79.0140831 C397.502443,65 412.835776,60.328639 426.989622,65 C448.220391,72.0070416 469.435421,78.2420783 479.468932,75.5 C486.157939,73.6719478 491.664836,74.8433089 495.989622,79.0140831 L380.989622,79.0140831 Z" id="Path-10" fill-opacity="0.5" fill="#516CA3"></path>
            </g>
        </g>
    </g>
</svg>