<?xml version="1.0" encoding="UTF-8"?>
<svg width="20px" height="23px" viewBox="0 0 20 23" version="1.1" xmlns="http://www.w3.org/2000/svg" xmlns:xlink="http://www.w3.org/1999/xlink">
    <!-- Generator: Sketch 53.2 (72643) - https://sketchapp.com -->
    <title>hot</title>
    <desc>Created with Sketch.</desc>
    <g id="Page-1" stroke="none" stroke-width="1" fill="none" fill-rule="evenodd">
        <g id="产品展示" transform="translate(-222.000000, -150.000000)" fill="#E82100" fill-rule="nonzero">
            <g id="产品边栏未展开" transform="translate(170.000000, 148.000000)">
                <g id="hot" transform="translate(52.000000, 2.000000)">
                    <path d="M10.3095975,13.6842105 C10.5766254,13.6842105 10.7739938,13.7861956 10.9017028,13.9774176 C11.006192,14.1686396 11.0526316,14.6403205 11.0526316,15.3797123 C11.0526316,16.2210891 10.994582,16.7820069 10.878483,17.0624659 C10.7739938,17.266436 10.5766254,17.3684211 10.3095975,17.3684211 C9.96130031,17.3684211 9.72910217,17.2409397 9.624613,17.0114733 C9.53173375,16.7310144 9.47368421,16.1828447 9.47368421,15.3797123 C9.47368421,14.6275724 9.55495356,14.1558915 9.70588235,13.9646695 C9.84520124,13.7734475 10.0541796,13.6842105 10.3095975,13.6842105 Z M18.1270489,8.63942726 C19.4561349,11.0626813 20.3397693,13.5254448 19.8745893,16.4417454 C19.4094092,19.358046 17.9330146,20.2299423 15.9739297,21.4462917 C13.4285225,23.0266747 7.69174689,23.0266747 3.7995027,21.4462917 C-0.0927414986,19.8659086 -0.3738271,16.6071917 0.264134143,13.5254448 C0.795768512,11.0100018 2.73623396,8.95550387 2.89572427,6.44006087 C3.62672153,7.75704674 3.71975754,8.71844642 3.7995027,10.1012816 C6.13869392,7.26976197 8.5576303,3.47684268 8.03928679,-5.02708986e-13 C8.03928679,-5.02708986e-13 12.4651429,1.38283516 14.2461181,8.11263292 C15.3093868,7.17757296 15.2030599,5.2547736 14.6847164,4.12216575 C16.1600018,5.17575444 17.2897248,7.0985538 18.1270489,8.63942726 Z M7.13550836,18.0295365 L7.14879922,18.0295365 L7.14879922,12.5377054 L5.79313158,12.5377054 L5.79313158,14.9214498 L4.41088222,14.9214498 L4.41088222,12.5377054 L3.05521458,12.5377054 L3.05521458,18.0295365 L4.39759136,18.0295365 L4.39759136,15.8433399 L5.77984072,15.8433399 L5.77984072,18.0295365 L7.13550836,18.0295365 Z M10.2588603,18.1085556 C11.2025113,18.1085556 11.7873091,17.8978379 12.0132537,17.4895723 C12.3056526,16.9891176 12.4518521,16.212096 12.4651429,15.1453374 C12.4651429,14.1180885 12.2923617,13.4069161 11.9733811,13.0118203 C11.6676914,12.6562341 11.0961844,12.4718561 10.2588603,12.4718561 C9.38166357,12.4718561 8.77028405,12.6562341 8.42472171,13.03816 C8.11903195,13.4069161 7.95954164,14.1049186 7.95954164,15.1453374 C7.95954164,16.1462467 8.11903195,16.9100985 8.45130343,17.4368928 C8.71712061,17.884668 9.31520928,18.1085556 10.2588603,18.1085556 Z M17.6618689,13.4595955 L17.648578,13.4595955 L17.648578,12.5377054 L12.8771595,12.5377054 L12.8771595,13.4595955 L14.6182621,13.4595955 L14.6182621,18.0295365 L15.9739297,18.0295365 L15.9739297,13.4595955 L17.6618689,13.4595955 Z" id="Combined-Shape"></path>
                </g>
            </g>
        </g>
    </g>
</svg>