<?xml version="1.0" encoding="UTF-8"?>
<svg width="26px" height="27px" viewBox="0 0 26 27" version="1.1" xmlns="http://www.w3.org/2000/svg" xmlns:xlink="http://www.w3.org/1999/xlink">
    <!-- Generator: Sketch 53.2 (72643) - https://sketchapp.com -->
    <title>xiadan</title>
    <desc>Created with Sketch.</desc>
    <g id="Page-1" stroke="none" stroke-width="1" fill="none" fill-rule="evenodd">
        <g id="产品详情" transform="translate(-969.000000, -588.000000)" fill="#FFFFFF" fill-rule="nonzero">
            <g transform="translate(323.000000, 191.000000)" id="xiadan">
                <g transform="translate(646.000000, 397.000000)">
                    <path d="M5.40509574,6.53380903 L8.96964162,16.7090323 L24.0794548,16.7090323 C24.3820206,16.7027725 24.6643206,16.8606084 24.8174394,17.1216446 C24.9705582,17.3826807 24.9705582,17.7061083 24.8174394,17.9671445 C24.6643206,18.2281806 24.3820206,18.3860165 24.0794548,18.3797567 L8.37686157,18.3797567 C8.02196433,18.3797951 7.70580041,18.1555409 7.58851416,17.8205842 L1.93064672,1.67108201 L0.835540993,1.67108201 C0.374084445,1.67108201 1.70586769e-13,1.29699756 1.70530257e-13,0.835541016 C1.70473744e-13,0.374084468 0.374084445,2.27549729e-08 0.835540993,2.27549729e-08 L2.52378429,2.27549729e-08 C2.87877848,-8.24750239e-05 3.19506924,0.224159939 3.31248922,0.559172515 L4.82053883,4.86630233 L25.1488186,4.86630233 C25.3993346,4.86648205 25.6365513,4.97905769 25.7951083,5.17301121 C25.9536653,5.36696472 26.0168299,5.621828 25.9671983,5.86737839 L24.6336219,12.3718702 C24.5608084,12.7267783 24.2675646,12.9943217 23.9074843,13.034368 L11.5649313,14.40906 C11.2644439,14.4497373 10.9655035,14.3244241 10.7838428,14.0816347 C10.602182,13.8388453 10.5663179,13.5166923 10.6901349,13.2398951 C10.8139519,12.963098 11.0780134,12.7751078 11.3800898,12.7487038 L23.1298627,11.4001113 C23.1298627,11.4001113 23.7237153,8.65072741 24.1573958,6.53559667 C24.167049,6.48911813 8.97142927,6.52487085 5.40545326,6.53380903 L5.40509574,6.53380903 Z M10.2699679,21.8045095 C10.939149,21.8045095 11.4816275,22.3469879 11.4816275,23.016169 C11.4816275,23.6853501 10.939149,24.2278286 10.2699679,24.2278286 C9.60078684,24.2278286 9.05830837,23.6853502 9.05830836,23.0161691 C9.0590964,22.3473146 9.60111351,21.8052975 10.2699679,21.8045095 L10.2699679,21.8045095 Z M10.2699679,20.2092233 C8.71978112,20.2094207 7.46324804,21.4662206 7.46337967,23.0164074 C7.46351131,24.5665942 8.72025782,25.8231806 10.2704446,25.8231148 C11.8206314,25.823049 13.0772713,24.5663559 13.0772713,23.0161691 C13.0772713,22.2716588 12.7814913,21.557647 12.2550095,21.0312322 C11.7285277,20.5048175 11.0144782,20.2091284 10.2699679,20.2092233 L10.2699679,20.2092233 Z M21.9661117,21.8045095 C22.6352928,21.8045095 23.1777713,22.3469879 23.1777713,23.016169 C23.1777713,23.6853501 22.6352928,24.2278286 21.9661117,24.2278286 C21.2969306,24.2278286 20.7544522,23.6853502 20.7544522,23.0161691 C20.7552402,22.3473146 21.2972573,21.8052975 21.9661117,21.8045095 Z M21.9661117,20.2092233 C20.8308081,20.2092233 19.8072938,20.8931136 19.372832,21.9419974 C18.9383701,22.9908812 19.1785204,24.1981986 19.9813013,25.0009795 C20.7840822,25.8037603 21.9913996,26.0439107 23.0402834,25.6094488 C24.0891671,25.174987 24.7730575,24.1514727 24.7730575,23.0161691 C24.7730575,21.4659357 23.5163451,20.2092233 21.9661117,20.2092233 L21.9661117,20.2092233 Z" id="Shape"></path>
                </g>
            </g>
        </g>
    </g>
</svg>