<?xml version="1.0" encoding="UTF-8"?>
<svg width="26px" height="27px" viewBox="0 0 26 27" version="1.1" xmlns="http://www.w3.org/2000/svg" xmlns:xlink="http://www.w3.org/1999/xlink">
    <!-- Generator: Sketch 53.2 (72643) - https://sketchapp.com -->
    <title>shoucang</title>
    <desc>Created with Sketch.</desc>
    <g id="Page-1" stroke="none" stroke-width="1" fill="none" fill-rule="evenodd">
        <g id="产品详情" transform="translate(-859.000000, -589.000000)" stroke="#FFFFFF" stroke-width="2">
            <g transform="translate(323.000000, 191.000000)" id="shoucang">
                <g transform="translate(536.000000, 398.000000)">
                    <path d="M13,19.5 L7.15226387,22.5743368 C6.66341929,22.8313376 6.05879213,22.6433911 5.80179132,22.1545465 C5.69945225,21.959886 5.66413758,21.736918 5.70131442,21.5201603 L6.81813264,15.0086105 L2.08721474,10.3971052 C1.69173116,10.011604 1.68363885,9.37849076 2.06914007,8.98300718 C2.22264867,8.82552355 2.42379108,8.72303637 2.64142811,8.69141186 L9.17939586,7.74138954 L12.1032639,1.81698575 C12.3476862,1.32173209 12.9473121,1.11839309 13.4425657,1.36281539 C13.6397783,1.46014562 13.7994058,1.61977315 13.8967361,1.81698575 L16.8206041,7.74138954 L23.3585719,8.69141186 C23.9051167,8.77082948 24.2837982,9.27827233 24.2043806,9.82481719 C24.1727561,10.0424542 24.0702689,10.2435966 23.9127853,10.3971052 L19.1818674,15.0086105 L20.2986856,21.5201603 C20.3920466,22.0644968 20.0264588,22.5814527 19.4821223,22.6748137 C19.2653647,22.7119906 19.0423966,22.6766759 18.8477361,22.5743368 L13,19.5 Z" id="Star"></path>
                </g>
            </g>
        </g>
    </g>
</svg>