<?xml version="1.0" encoding="UTF-8"?>
<svg width="42px" height="35px" viewBox="0 0 42 35" version="1.1" xmlns="http://www.w3.org/2000/svg" xmlns:xlink="http://www.w3.org/1999/xlink">
    <!-- Generator: Sketch 53.2 (72643) - https://sketchapp.com -->
    <title>icon</title>
    <desc>Created with Sketch.</desc>
    <g id="Page-1" stroke="none" stroke-width="1" fill="none" fill-rule="evenodd">
        <g id="产品详情" transform="translate(-362.000000, -269.000000)" stroke="#000000" stroke-width="1.5">
            <g transform="translate(323.000000, 191.000000)" id="icon">
                <g transform="translate(39.000000, 78.000000)">
                    <path d="M14.8034636,18.4855429 L14.8034636,26.0018901 L19.347442,26.0018901 L19.347442,19.1592324 L23.4610436,19.1592324 L23.4610436,26.0018901 L28.005022,26.0018901 L28.005022,16.9079955 L33.0330246,19.8109141 L33.0330246,29.1057187 L24.9834877,33.753121 L17.0165123,29.1533856 L9.04953692,33.753121 L1,29.1057187 L1,19.8109141 L9.04953692,15.1635118 L14.8034636,18.4855429 Z M28.005022,16.7343575 L28.005022,8.96697539 L23.4610436,8.96697539 L23.4610436,14.8921631 L19.347442,14.8921631 L19.347442,8.96697539 L14.8034636,8.96697539 L14.8034636,18.311905 L8.96697539,14.9422069 L8.96697539,5.64740231 L17.0165123,1 L24.9834877,5.59973538 L32.9504631,1 L41,5.64740231 L41,14.9422069 L32.9504631,19.5896092 L28.005022,16.7343575 Z" id="Combined-Shape"></path>
                </g>
            </g>
        </g>
    </g>
</svg>