<?xml version="1.0" encoding="UTF-8"?>
<svg width="29px" height="27px" viewBox="0 0 29 27" version="1.1" xmlns="http://www.w3.org/2000/svg" xmlns:xlink="http://www.w3.org/1999/xlink">
    <!-- Generator: Sketch 53.2 (72643) - https://sketchapp.com -->
    <title>zixun</title>
    <desc>Created with Sketch.</desc>
    <g id="Page-1" stroke="none" stroke-width="1" fill="none" fill-rule="evenodd">
        <g id="产品详情" transform="translate(-741.000000, -590.000000)" fill="#FFFFFF" fill-rule="nonzero">
            <g transform="translate(323.000000, 191.000000)" id="zixun">
                <g transform="translate(418.000000, 399.000000)">
                    <path d="M8.5442764e-13,11.8847685 C8.5442764e-13,5.27641898 6.32283354,-5.5067062e-14 14.0430787,-5.5067062e-14 C21.7674078,-5.5067062e-14 28.0861574,5.26962073 28.0861574,11.8847685 C28.0861574,18.4999163 21.7674078,23.769537 14.0430787,23.769537 C13.4890945,23.769537 13.0400016,23.3204441 13.0400016,22.76646 C13.0400016,22.2124758 13.4890945,21.7633829 14.0430787,21.7633829 C20.7318386,21.7633829 26.0800033,17.3031967 26.0800033,11.8847685 C26.0800033,6.46634034 20.7318386,2.0061541 14.0430787,2.0061541 C7.35862372,2.0061541 2.0061541,6.47280218 2.0061541,11.8847685 C2.0061541,15.159934 3.97573925,18.1851745 7.24289048,20.0270674 C7.55211643,20.2013969 7.74617336,20.5261816 7.75316622,20.8810937 C7.75327864,20.8871796 7.75327864,20.8871796 7.75341342,20.8985288 C7.75651042,21.206763 7.72996382,21.6562879 7.64783229,22.2017071 C7.5931129,22.5650877 7.51924787,22.9281217 7.42398196,23.2874893 C7.97232761,22.9683497 8.51585109,22.5497914 9.03913681,22.0167075 C9.16425256,21.889249 9.28737351,21.7559207 9.40836897,21.6165749 C9.7715827,21.1982757 10.4051241,21.1536201 10.8234233,21.5168338 C11.2417225,21.8800476 11.2863781,22.513589 10.9231644,22.9318882 C10.775363,23.1021054 10.6245166,23.2654577 10.4707981,23.4220545 C9.46805529,24.443573 8.38386051,25.1437472 7.29185542,25.5774759 C6.61593255,25.8459428 6.0703048,25.9657643 5.72004396,25.9960326 C4.90167436,26.066753 4.34988466,25.1776605 4.7765027,24.4757152 C4.88461728,24.2978265 4.98370481,24.111509 5.07400988,23.9175466 C5.47486591,23.0565653 5.66620609,22.1722436 5.72610496,21.4598615 C2.1714631,19.2505758 8.5442764e-13,15.7356391 8.5442764e-13,11.8847685 Z M9.60947813,13.5214786 C8.88929872,13.5214786 8.30547796,12.9376579 8.30547796,12.2174785 C8.30547796,11.4972991 8.88929872,10.9134783 9.60947813,10.9134783 C10.3296575,10.9134783 10.9134783,11.4972991 10.9134783,12.2174785 C10.9134783,12.9376579 10.3296575,13.5214786 9.60947813,13.5214786 Z M15.8686789,13.5214786 C15.1484995,13.5214786 14.5646787,12.9376579 14.5646787,12.2174785 C14.5646787,11.4972991 15.1484995,10.9134783 15.8686789,10.9134783 C16.5888583,10.9134783 17.1726791,11.4972991 17.1726791,12.2174785 C17.1726791,12.9376579 16.5888583,13.5214786 15.8686789,13.5214786 Z M22.1278797,13.5214786 C21.4077003,13.5214786 20.8238795,12.9376579 20.8238795,12.2174785 C20.8238795,11.4972991 21.4077003,10.9134783 22.1278797,10.9134783 C22.8480591,10.9134783 23.4318799,11.4972991 23.4318799,12.2174785 C23.4318799,12.9376579 22.8480591,13.5214786 22.1278797,13.5214786 Z" id="Combined-Shape"></path>
                </g>
            </g>
        </g>
    </g>
</svg>