<?xml version="1.0" encoding="UTF-8"?>
<svg width="150px" height="42px" viewBox="0 0 150 42" version="1.1" xmlns="http://www.w3.org/2000/svg" xmlns:xlink="http://www.w3.org/1999/xlink">
    <!-- Generator: Sketch 53 (72520) - https://sketchapp.com -->
    <title>logo</title>
    <desc>Created with Sketch.</desc>
    <g id="Page-1" stroke="none" stroke-width="1" fill="none" fill-rule="evenodd">
        <g id="登陆/注册" transform="translate(-60.000000, -31.000000)" fill-rule="nonzero">
            <g id="logo" transform="translate(60.000000, 31.000000)">
                <path d="M26.3555276,22.9899497 C25.6934222,22.9888275 25.0348331,22.8936557 24.3994975,22.7072864 C24.1777486,24.0726776 23.225839,25.2068679 21.919598,25.6620603 C22.1138019,26.2207576 22.2131634,26.8080098 22.2135678,27.3994975 C22.2125672,27.7666857 22.1746887,28.132845 22.1005025,28.4924623 C24.8025439,29.5537082 26.9664242,31.6537853 28.1080402,34.3228643 L30.8517588,32.7399497 L30.8517588,21.388191 C29.5844602,22.4279774 27.9947905,22.994289 26.3555276,22.9899497 Z M27.0414573,29.1331658 C25.7925722,29.1331658 24.7801508,28.1207444 24.7801508,26.8718593 C24.7801508,25.6229742 25.7925722,24.6105528 27.0414573,24.6105528 C28.2903424,24.6105528 29.3027638,25.6229742 29.3027638,26.8718593 C29.3057723,27.4735517 29.068857,28.0516328 28.6444532,28.4781586 C28.2200495,28.9046843 27.6431572,29.1444799 27.0414573,29.1444724 L27.0414573,29.1331658 Z" id="Shape" fill="#00A0E9"></path>
                <path d="M7.53768844,18.9987437 C6.9529501,17.0063139 7.22615908,14.8602574 8.29145729,13.0778894 C7.45602685,12.6924806 6.73424467,12.097919 6.1959799,11.3517588 L0,14.928392 L0,19.6168342 C1.45053393,18.9500341 3.02791656,18.6042184 4.62437186,18.6030151 C5.6086739,18.6059531 6.58826732,18.7390156 7.53768844,18.9987437 Z" id="Path" fill="#FFE200"></path>
                <path d="M17.3781407,23.9095477 C16.5362245,24.2336775 15.6421015,24.4010062 14.7399497,24.4032663 C14.6306533,24.4032663 14.5251256,24.4032663 14.419598,24.4032663 C15.0454648,25.5481988 15.4639667,26.7947732 15.6557789,28.0854271 C17.8027518,27.5519906 20.0628141,27.70354 22.1193467,28.5188442 C22.1935329,28.1592269 22.2314114,27.7930676 22.2324121,27.4258794 C22.2320077,26.8343917 22.1326461,26.2471396 21.9384422,25.6884422 C21.5425258,25.8279676 21.1258123,25.8993313 20.7060302,25.8994975 C19.314421,25.901447 18.0349795,25.1363903 17.3781407,23.9095477 L17.3781407,23.9095477 Z" id="Path" fill="#009A3E"></path>
                <path d="M22.1005025,28.5037688 C20.0439699,27.6884646 17.7839076,27.5369153 15.6369347,28.0703518 C15.7263323,28.6338592 15.7729479,29.2033251 15.7763819,29.7738693 C15.7533335,33.4737487 13.9131136,36.9259223 10.8542714,39.0075377 L15.4258794,41.6457286 L28.1080402,34.3228643 C26.9639533,31.6580622 24.8004017,29.5623761 22.1005025,28.5037688 L22.1005025,28.5037688 Z" id="Path" fill="#FFE200"></path>
                <path d="M14.4007538,24.388191 C13.8530202,24.3654216 13.3094993,24.2819975 12.7801508,24.1394472 C10.2552594,23.4582252 8.2682646,21.5097989 7.53768844,18.9987437 C6.59107156,18.7463635 5.61535917,18.6196476 4.63567839,18.6218593 C3.03680006,18.61552 1.45545081,18.9549316 0,19.6168342 L0,32.7399497 L7.48492462,37.0628141 C8.08191344,32.6682781 11.3218599,29.0943011 15.6369347,28.0703518 C15.4451225,26.7796978 15.0266205,25.5331234 14.4007538,24.388191 Z" id="Path" fill="#E60012"></path>
                <path d="M15.6369347,28.0703518 C11.3218599,29.0943011 8.08191344,32.6682781 7.48492462,37.0628141 L10.8542714,39.0075377 C13.9131136,36.9259223 15.7533335,33.4737487 15.7763819,29.7738693 C15.7729479,29.2033251 15.7263323,28.6338592 15.6369347,28.0703518 Z" id="Path" fill="#EB6100"></path>
                <path d="M19.7638191,18.4673367 C19.4466682,17.6526567 19.2831072,16.7862944 19.281407,15.9120603 C19.281407,15.6407035 19.3040201,15.3693467 19.330402,15.1055276 C18.2303901,15.4547691 17.031,15.2807468 16.0756025,14.6332813 C15.1202051,13.9858158 14.5141356,12.9362921 14.4309045,11.7851759 C12.890702,13.5181473 10.3996908,14.0426512 8.29145729,13.0778894 C7.22615908,14.8602574 6.9529501,17.0063139 7.53768844,18.9987437 C10.0100096,19.6700828 12.1763293,21.1710709 13.6733668,23.25 C13.9369517,23.6128694 14.1798019,23.9903567 14.4007538,24.3806533 C14.5062814,24.3806533 14.611809,24.3806533 14.7211055,24.3806533 C15.6232573,24.3783932 16.5173803,24.2110644 17.3592965,23.8869347 C16.8171035,22.8647384 16.7745099,21.6501345 17.2437663,20.5924688 C17.7130227,19.5348031 18.642116,18.7513092 19.7638191,18.4673367 Z M12.7801508,18.6557789 C12.0355817,18.6573031 11.3635503,18.209757 11.0779115,17.5221554 C10.7922727,16.8345539 10.9493869,16.0425698 11.4758778,15.5160788 C12.0023688,14.9895879 12.7943529,14.8324738 13.4819544,15.1181125 C14.169556,15.4037513 14.6171021,16.0757827 14.6155779,16.8203518 C14.6185856,17.3094404 14.4266598,17.7795841 14.0822328,18.1268401 C13.7378057,18.4740962 13.2692477,18.6698613 12.7801508,18.6708543 L12.7801508,18.6557789 Z" id="Shape" fill="#00A0E9"></path>
                <path d="M13.6733668,23.25 C12.1763293,21.1710709 10.0100096,19.6700828 7.53768844,18.9987437 C8.2682646,21.5097989 10.2552594,23.4582252 12.7801508,24.1394472 C13.3094993,24.2819975 13.8530202,24.3654216 14.4007538,24.388191 C14.1800472,23.9953218 13.9371934,23.6153123 13.6733668,23.25 Z" id="Path" fill="#009A3E"></path>
                <path d="M30.9346734,15.3467337 C30.9346734,17.8611557 28.8963316,19.8994975 26.3819095,19.8994975 C23.8674875,19.8994975 21.8291457,17.8611557 21.8291457,15.3467337 C21.8291457,12.8323116 23.8674875,10.7939698 26.3819095,10.7939698 C27.5896842,10.7929688 28.7482792,11.2723121 29.6023051,12.1263381 C30.4563311,12.980364 30.9356744,14.138959 30.9346734,15.3467337 L30.9346734,15.3467337 Z" id="Path" fill="#E60012"></path>
                <path d="M13.9447236,8.1218593 C13.9447236,10.0451424 12.3855946,11.6042714 10.4623116,11.6042714 C8.53902848,11.6042714 6.9798995,10.0451424 6.9798995,8.1218593 C6.9798995,6.19857622 8.53902848,4.63944724 10.4623116,4.63944724 C12.3855946,4.63944724 13.9447236,6.19857622 13.9447236,8.1218593 Z" id="Path" fill="#009A3E"></path>
                <path d="M18.4673367,0.670854271 C18.4657375,0.941673229 18.3005635,1.18464858 18.0493237,1.2857624 C17.7980838,1.38687622 17.5106456,1.3260589 17.3218914,1.1318494 C17.1331372,0.937639907 17.0805321,0.648585969 17.1887612,0.400328216 C17.2969904,0.152070463 17.544572,-0.00611558788 17.8153266,-9.91721353e-14 C18.1793174,0.00822153042 18.4694865,0.30677704 18.4673367,0.670854271 L18.4673367,0.670854271 Z" id="Path" fill="#00A0E9"></path>
                <path d="M17.1407035,6.7160804 C17.1422288,7.28500537 16.8006905,7.79875892 16.2755095,8.01753478 C15.7503285,8.23631063 15.1450608,8.11697021 14.7422291,7.71521841 C14.3393973,7.31346662 14.2184324,6.70852148 14.4357976,6.18275507 C14.6531628,5.65698865 15.1659976,5.3140724 15.7349246,5.31407035 C16.5098454,5.31406757 17.138626,5.94116239 17.1407035,6.7160804 Z" id="Path" fill="#E60012"></path>
                <path d="M33.8479899,18.9949749 C33.849514,19.4011353 33.6058201,19.7680804 33.2308664,19.9242161 C32.8559128,20.0803518 32.4238018,19.9948209 32.136601,19.7076201 C31.8494002,19.4204193 31.7638693,18.9883083 31.920005,18.6133547 C32.0761407,18.238401 32.4430859,17.9947071 32.8492462,17.9962312 C33.3999789,17.9982977 33.8459234,18.4442422 33.8479899,18.9949749 Z" id="Path" fill="#22AC38"></path>
                <path d="M23.4007538,21.388191 C23.4007538,22.4809654 22.514885,23.3668342 21.4221106,23.3668342 C20.3293361,23.3668342 19.4434673,22.4809654 19.4434673,21.388191 C19.4434673,20.2954165 20.3293361,19.4095477 21.4221106,19.4095477 C21.9471862,19.4085447 22.4510448,19.6166862 22.8223301,19.9879714 C23.1936153,20.3592567 23.4017568,20.8631153 23.4007538,21.388191 L23.4007538,21.388191 Z" id="Path" fill="#FFF100"></path>
                <path d="M29.7324121,7.53768844 C29.7324121,8.4223154 29.0152802,9.13944724 28.1306533,9.13944724 C27.2460263,9.13944724 26.5288945,8.4223154 26.5288945,7.53768844 C26.5288945,6.65306149 27.2460263,5.93592965 28.1306533,5.93592965 C29.0152802,5.93592965 29.7324121,6.65306149 29.7324121,7.53768844 Z" id="Path" fill="#00A0E9"></path>
                <path d="M28.0628141,2.14824121 C28.0545179,2.69987499 27.6020708,3.1411385 27.0504022,3.13562838 C26.4987335,3.13011827 26.0551906,2.67990554 26.0579145,2.1282161 C26.0606384,1.57652665 26.5086053,1.13071565 27.0603015,1.13065327 C27.3288171,1.1306229 27.5861216,1.23831137 27.7745686,1.42959216 C27.9630156,1.62087295 28.0668519,1.87975599 28.0628141,2.14824121 Z" id="Path" fill="#E60012"></path>
                <path d="M20.5515075,11.3479899 C20.5515075,12.5968751 19.5390861,13.6092965 18.290201,13.6092965 C17.0413159,13.6092965 16.0288945,12.5968751 16.0288945,11.3479899 C16.0288945,10.0991048 17.0413159,9.08668342 18.290201,9.08668342 C18.891478,9.08160908 19.4696032,9.31822337 19.8947854,9.74340557 C20.3199676,10.1685878 20.5565819,10.7467129 20.5515075,11.3479899 Z" id="Path" fill="#EB6100"></path>
                <path d="M25.4736181,4.14572864 C25.4736181,6.09815237 23.8908659,7.68090452 21.9384422,7.68090452 C19.9860185,7.68090452 18.4032663,6.09815237 18.4032663,4.14572864 C18.4032663,2.19330492 19.9860185,0.610552764 21.9384422,0.610552764 C22.8760291,0.610552764 23.775215,0.983007725 24.438189,1.64598181 C25.1011631,2.30895589 25.4736181,3.20814171 25.4736181,4.14572864 Z" id="Path" fill="#FFE200"></path>
                <polygon id="Path" fill="#00A0E9" points="38.5364322 13.1042714 43.669598 13.1042714 43.669598 19.7977387 48.3165829 19.7977387 48.3165829 13.1042714 53.4497487 13.1042714 53.4497487 32.3479899 48.3165829 32.3479899 48.3165829 24.6180905 43.669598 24.6180905 43.669598 32.3479899 38.5364322 32.3479899"></polygon>
                <path d="M61.5565327,13.1042714 L61.5565327,24.6180905 C61.5565327,25.5979899 61.6130653,26.0012563 61.8467337,26.4346734 C62.2437462,27.1943765 63.0361804,27.6642914 63.8932161,27.6482412 C65.25,27.6482412 66.1997487,26.6080402 66.1997487,25.1080402 L66.1997487,13.1042714 L71.3366834,13.1042714 L71.3366834,24.5879397 C71.3366834,27.2977387 70.7298995,28.9447236 69.2600503,30.5012563 C67.7855438,31.9735531 65.7715512,32.7764059 63.6885496,32.722265 C61.6055479,32.6681241 59.6359816,31.7617314 58.2399497,30.2148241 C56.9396985,28.7072864 56.419598,27.1545226 56.419598,24.5879397 L56.419598,13.1042714 L61.5565327,13.1042714 Z" id="Path" fill="#00A0E9"></path>
                <polygon id="Path" fill="#00A0E9" points="74.3065327 13.1042714 79.4396985 13.1042714 79.4396985 32.3479899 74.3065327 32.3479899"></polygon>
                <path d="M86.8567839,26.2349246 C85.4838561,25.7336151 84.2885806,24.8397798 83.419598,23.6645729 C82.3266332,22.2248744 81.9497487,20.8680905 81.9497487,18.2977387 L81.9497487,13.1042714 L87.0866834,13.1042714 L87.0866834,18.8743719 C87.1130653,20.5515075 87.9798995,21.5879397 89.4233668,21.5879397 C90.8668342,21.5879397 91.7298995,20.5515075 91.7298995,18.8743719 L91.7298995,13.1042714 L96.8592965,13.1042714 L96.8592965,18.2977387 C96.8592965,21.0979899 96.4258794,22.5414573 95.0992462,24.0678392 C94.2604004,25.0422888 93.1879841,25.7879229 91.9824121,26.2349246 L91.9824121,32.3479899 L86.8567839,32.3479899 L86.8567839,26.2349246 Z" id="Path" fill="#00A0E9"></path>
                <path d="M104.423367,13.1042714 L104.423367,24.6180905 C104.423367,25.5979899 104.483668,26.0012563 104.709799,26.4346734 C105.11267,27.1906098 105.903525,27.6587265 106.76005,27.6482412 C108.116834,27.6482412 109.070352,26.6080402 109.070352,25.1080402 L109.070352,13.1042714 L114.19598,13.1042714 L114.19598,24.5879397 C114.19598,27.2977387 113.592965,28.9447236 112.119347,30.5012563 C110.64484,31.9735531 108.630848,32.7764059 106.547846,32.722265 C104.464844,32.6681241 102.495278,31.7617314 101.099246,30.2148241 C99.8027638,28.7072864 99.2788945,27.1545226 99.2788945,24.5879397 L99.2788945,13.1042714 L104.423367,13.1042714 Z" id="Path" fill="#00A0E9"></path>
                <path d="M126.866834,32.3479899 L126.866834,27.0979899 L122.223618,27.0979899 L122.223618,32.3479899 L117.086683,32.3479899 L117.086683,20.8944724 C117.086683,18.4145729 117.576633,16.8844221 118.790201,15.4145729 C120.200508,13.7423157 122.267734,12.7652282 124.455109,12.737018 C126.642485,12.7088078 128.734222,13.6322579 130.187186,15.2675879 C131.483668,16.7751256 132.003769,18.3580402 132.003769,20.8944724 L132.003769,32.3479899 L126.866834,32.3479899 Z M126.866834,20.8680905 C126.866834,19.8844221 126.810302,19.5113065 126.580402,19.0213568 C126.183208,18.2744472 125.406255,17.8076953 124.560302,17.8077889 C123.641479,17.7991255 122.808771,18.3473127 122.453518,19.1947236 C122.261909,19.7305926 122.183624,20.3004022 122.223618,20.8680905 L122.223618,22.7525126 L126.866834,22.7525126 L126.866834,20.8680905 Z" id="Shape" fill="#00A0E9"></path>
                <path d="M134.886935,32.3479899 L134.886935,20.8944724 C134.886935,18.1545226 135.463568,16.5113065 136.963568,14.9811558 C138.428444,13.4903757 140.446538,12.6747412 142.535877,12.7290469 C144.625216,12.7833525 146.598214,13.7027226 147.983668,15.2675879 C149.28392,16.7751256 149.80402,18.3580402 149.80402,20.8944724 L149.80402,32.3479899 L144.667085,32.3479899 L144.667085,20.3743719 C144.667085,18.7311558 143.830402,17.8077889 142.405779,17.8077889 C140.981156,17.8077889 140.038945,18.8479899 140.038945,20.3743719 L140.038945,32.3479899 L134.886935,32.3479899 Z" id="Path" fill="#00A0E9"></path>
            </g>
        </g>
    </g>
</svg>