<?xml version="1.0" encoding="UTF-8"?>
<svg width="17px" height="13px" viewBox="0 0 17 13" version="1.1" xmlns="http://www.w3.org/2000/svg" xmlns:xlink="http://www.w3.org/1999/xlink">
    <!-- Generator: Sketch 53.2 (72643) - https://sketchapp.com -->
    <title>liulan</title>
    <desc>Created with Sketch.</desc>
    <g id="Page-1" stroke="none" stroke-width="1" fill="none" fill-rule="evenodd">
        <g id="产品展示" transform="translate(-377.000000, -430.000000)" stroke="#BBBBBB">
            <g id="liulan" transform="translate(377.000000, 430.000000)">
                <path d="M8.5,12 C5.80627338,12 3.36130987,10.2554543 1.16510945,6.7663628 C1.0626502,6.60358636 1.06264999,6.39646701 1.16510891,6.23369036 L1.16508533,6.23367552 C3.36129196,2.74455851 5.80626352,1 8.5,1 C11.1937266,1 13.6386901,2.74454573 15.8348905,6.2336372 C15.9373498,6.39641364 15.93735,6.60353299 15.8348911,6.76630964 L15.8349147,6.76632448 C13.638708,10.2554415 11.1937365,12 8.5,12 Z M8.5,9 C9.88071187,9 11,7.88071187 11,6.5 C11,5.11928813 9.88071187,4 8.5,4 C7.11928813,4 6,5.11928813 6,6.5 C6,7.88071187 7.11928813,9 8.5,9 Z" id="Combined-Shape"></path>
            </g>
        </g>
    </g>
</svg>